<svg class="svg-image-dog" version="1.1" id="Layer_1" xmlns="http://www.w3.org/2000/svg" xmlns:xlink="http://www.w3.org/1999/xlink" x="0px" y="0px"
 	 viewBox="0 0 55.3 80" style="enable-background:new 0 0 55.3 80;" xml:space="preserve">
 <style type="text/css">
 	.st0{fill:#FFF9E9;}
 	.st1{fill:#DDD8CE;}
 	.st2{fill:#AA3C37;}
 	.st3{fill:#BF946D;}
 	.st4{fill:#EDB68A;}
 	.st5{fill:#231F20;}
 	.st6{opacity:0.29;fill:#FFF9E9;enable-background:new    ;}
 	.st7{fill:#CE9736;}
 	.st8{fill:#F45C4D;}
 	.st9{fill:#F2BC44;}
 	.st10{opacity:0.48;fill:#FFF9E9;enable-background:new    ;}
 	.st11{fill:#FC636B;}
 	.st12{fill:#FFFFFF;}
 </style>
 <path class="st0" d="M6.4,74.7c-0.9,0.5-1.5,1.3-1.8,2.3c-0.2,0.7,0.1,1.5,0.8,1.9c0.1,0.5,0.4,1,0.9,1.1c1.1,0.4,2.4-0.3,3.4-1
 	l4.2-2.9c0.7-0.5,1.4-1.1,1.4-1.9c0-0.4-0.2-0.8-0.5-1.1c-0.8-1-2.6-1.8-3.9-1.3C9.2,72.6,7.7,73.5,6.4,74.7z"/>
 <path class="st1" d="M5.3,78.8c-0.1-0.4,0-0.7,0.3-1c0.3-0.4,0.6-0.7,1-1c-0.4,0.1-0.8,0.3-1.2,0.5c-0.3,0.3-0.5,0.7-0.6,1.1
 	c0,0.1,0.1,0.2,0.2,0.3C5.1,78.8,5.2,78.8,5.3,78.8z"/>
 <path class="st2" d="M36.9,41c-0.1-0.5-0.2-0.9-0.3-1.3c-0.4-1-1.8-1-1.8-1l-0.6,4.7l1.1,1.1l1.3-1.1L36.9,41L36.9,41z"/>
 <path class="st2" d="M11.4,38.5c0.1-0.5,0.4-1,0.9-1.2c0.4-0.4,1-0.6,1.6-0.5L13.5,42h-1.4L11.4,38.5z"/>
 <path class="st1" d="M46.1,66.7c2-1.1,3.8-2.5,5.5-4c0.8-0.7,1.5-1.5,2-2.4c0.3-0.6,0.8-1.5,1.5-1.4c0.3,0.4,0.1,1-0.1,1.4
 	c-2.7,5-7,9-12.2,11.4c-1,0.5-2.2,0.8-3.4,0.9c-0.2,0-0.5,0-0.7-0.1c-0.4-0.2-0.6-0.7-0.7-1.1c-0.3-1.3,0.5-2.7,1.8-3
 	c0.2,0,0.4-0.1,0.6-0.1C42.4,68.3,44.4,67.7,46.1,66.7z"/>
 <path class="st0" d="M42.6,53c0.6-0.1,1.3-0.1,1.8,0.1c1.2,0.5,1.7,2.1,1.7,3.4c-0.1,2.6-0.6,5.1-1.7,7.5c-1,2.5-2,5-3.2,7.5
 	c-0.3,0.9-0.9,1.6-1.8,2c-1,0.2-2-0.1-2.5-0.9c-0.5-0.8-0.9-1.7-1-2.7C34.8,64.2,35.3,54.2,42.6,53z"/>
 <path class="st0" d="M4.4,54.8c-0.6,0-1.2,0.2-1.8,0.6c-1.1,0.8-1.1,2.4-0.8,3.7c0.7,2.5,1.9,4.8,3.5,6.8c1.6,2.2,3.2,4.4,5,6.5
 	c0.5,0.8,1.3,1.3,2.2,1.5c1,0,1.9-0.6,2.2-1.5c0.3-0.9,0.4-1.9,0.3-2.8C14.7,63.7,11.8,54.2,4.4,54.8z"/>
 <path class="st0" d="M7.8,60.5C7.4,63,7.4,65.6,8,68.1c0.6,2.7,2.4,4.9,4.8,6.2c1.5,0.7,3.1,1.1,4.8,1.3c3.1,0.4,6.3,0.4,9.5,0.3
 	c3.6,0,7.2-0.6,10.7-1.7c0.9-0.3,1.7-0.7,2.3-1.3c0.8-0.8,1.3-1.9,1.4-3.1c0.6-3.9,0.4-7.8-0.7-11.5c-1.4-6.1-4.1-11.8-7.9-16.7
 	c-1.3-1.9-3.2-3.4-5.3-4.3c-1.5-0.5-3.1-0.7-4.6-0.7c-3.2,0-7.8,0.9-9.4,3.5c-2.3,3.6-3.2,8.4-4.1,12.4C8.7,55.2,8.2,57.8,7.8,60.5z
 	"/>
 <path class="st0" d="M13,36.9c-0.2,2.1-0.1,4.3,0.2,6.4c0.5,3.9,2.7,7.4,5.8,9.7c2.9,2,6.7,2.3,9.9,0.8c1.5-0.7,2.9-1.8,3.9-3.2
 	c3-4,3.1-10.1,2.3-15.4c-0.2-2-0.7-3.9-1.4-5.7c-2.2-5.1-7-8.7-12.5-9.3c-1.5-0.3-3.1-0.1-4.5,0.6C12.4,23.3,13.2,32.2,13,36.9z"/>
 <path class="st1" d="M16.8,43.2c3.2,3,7.6,5.2,11.9,4.2c4.7-1.3,7.6-6.1,6.6-10.9c-0.9-3.1-3.1-5.6-6-7c-2.9-1.3-6.1-1.9-9.3-1.7
 	c-2-0.1-4.1,0.5-5.8,1.5C9.4,32.6,13.7,40.3,16.8,43.2z"/>
 <path class="st3" d="M3.4,13.1c-0.4,0.1-0.7,0.3-0.9,0.5c-0.2,0.3-0.3,0.5-0.3,0.9c-0.2,1.4-0.2,2.8-0.1,4.2c0,0.1,0,0.2,0.1,0.4
 	c0.2,0.2,0.4,0.3,0.6,0.3c2.8,0.4,5.5,1.6,7.6,3.5c0.5,0.5,1.2,1,1.8,0.8c0.4-0.1,0.7-0.4,0.9-0.7c1-1.1,1.8-2.3,2.5-3.6
 	c0.6-1.3,0.8-2.8,0.4-4.3c-0.3-1-1-1.9-1.9-2.4c-1-0.4-2.1-0.5-3.1-0.5C8.6,12,5.9,12.3,3.4,13.1z"/>
 <path class="st3" d="M26.8,3.7c1-0.8,2.2-1.2,3.5-1.1c1.5,0.3,2.6,1.7,4,2.2c-1.5,3.3-1.8,7.1-2,10.7c0,1.1-0.2,2.1-0.8,3
 	c-0.9,1-2.3,1.4-3.7,1c-1.3-0.4-2.4-1.2-3.3-2.2c-1-0.9-1.7-2.1-2.2-3.3c-0.7-1.9,0-3.8,0.8-5.6C23.9,6.5,25.2,4.9,26.8,3.7z"/>
 <path class="st0" d="M37.9,25.5c-0.9-2.4-2.1-4.7-3.6-6.9c-1.3-2.1-2.8-4.2-4.3-6.2c-0.7-1.1-1.6-2-2.6-2.8c-2-1.6-4.7-2.2-7.2-1.5
 	C17,9.1,10.1,10,9.9,22.4c-0.1,6,0.6,12.5,4.6,16.8c3.5,3.6,8.5,5.3,13.5,4.4c2.6-0.4,5-1.6,7-3.4c2-1.9,3.4-4.4,3.8-7.1
 	C39.2,30.6,38.9,28,37.9,25.5z"/>
 <path class="st3" d="M20,13.3c-0.7-0.4-1.5-0.7-2.3-0.8c-1.7-0.2-3.3,0.1-4.8,0.9c-0.4,0.2-1,0.5-1.4,0.6c-1.2,2.6-1.8,5.5-1.7,8.4
 	c-0.1,3.9,0.4,7.8,1.6,11.5c0.7-0.4,1.3-0.8,1.9-1.3c2.4-1.9,4.7-4.1,5.5-7c0.2-0.7,0.3-1.4,0.5-2.1c0.5-1.5,1.6-2.8,2.2-4.2
 	C22.5,17.1,21.8,14.7,20,13.3z"/>
 <path class="st4" d="M32.9,9.8c0.5,0.5,1.1,0.9,1.8,1.2c0.6,0.2,1.3-0.1,1.7-0.6c0.9-1.5,1.1-3.3,0.4-4.9c-0.4-0.8-1-1.5-1.7-2
 	c-1-0.7-2.2-1.2-3.4-1.5c-1.1-0.3-2.3-0.2-3.3,0.2c-0.7,0.3-2.2,1.4-2.5,2.2C26.9,4,28.2,4.2,29.1,5C31.2,6.7,31.2,8.5,32.9,9.8z"/>
 <path class="st4" d="M4.2,12.4c-1.5,0.6-4.8,2-4.1,6.7c0.2,1.3,0.6,2.6,1.2,3.8c0.4,0.9,1.1,1.7,1.9,2.4c0.9,0.6,2,0.7,2.9,0.2
 	c1.5-1.4-2.3-4-1.4-7.8c0.5-2.1,1.5-4,3-5.5C6.6,11.9,5.3,11.9,4.2,12.4z"/>
 <path class="st1" d="M24.1,39.1c-0.2,0.1-0.9,0.5-1.8,0.4c-1.9-0.1-3.2-2-3.2-2c0,0,1.3,2,3.7,2.4c0.4,0.1,1.9,0.3,3.1-0.5
 	c0.9-0.7,1.4-1.5,1.4-2.5c0.1-0.3-0.4-0.6-0.6-0.9c-0.1-0.2-0.3-0.3-0.5-0.4c-0.9-0.3-0.5,0.4-0.4,0.6c0.1,0.4,0.1,0.8,0,1.2
 	C25.5,38,24.9,38.6,24.1,39.1z"/>
 <path class="st1" d="M31.1,38"/>
 <path class="st1" d="M29.8,37.1c0.3,0,0.9,0,1.4-0.2c1.5-0.8,1.6-3.4,1.6-3.4c0,0,0.3,2.6-1.6,3.9c-0.9,0.6-1.8,0.6-2.2,0.6
 	c-1.1-0.2-2-0.7-2.8-1.4C26,36.3,26,36,25.9,35.7c-0.1-0.1-0.1-0.3,0-0.5c0.3-0.5,0.6,0.1,0.8,0.3c0.3,0.3,0.6,0.6,0.9,0.8
 	C28.2,36.8,29,37.1,29.8,37.1z"/>
 <path class="st5" d="M19.6,32.1c-1.2,0.9-1.5,2-0.7,2.8c0.7,0.7,2.6,0.4,3.6,0.6c1,0.4,2,0.8,3,1.3c1,0.4,2.4,0.2,2.9-0.7
 	c0.1-0.3,0.2-0.6,0.3-0.9c0.4-1,1.5-1.6,2.3-2.2s1.7-1.7,1.3-2.8s-1.7-1.4-2.9-1.3C26.7,29.1,20.8,31.1,19.6,32.1z"/>
 <path class="st6" d="M20,34.3c0.3,0,0.5,0,0.7-0.2c0.2-0.2,0.4-0.4,0.5-0.6c0.8-0.9,1.7-1.6,2.8-2c0.2-0.1,0.4-0.1,0.5-0.3
 	c0.2-0.1,0.2-0.3,0.2-0.5c-0.1-0.4-3.5,1.3-3.8,1.5S18.4,34,20,34.3z"/>
 <path class="st1" d="M12.3,60.3c0.5,1.7,0.9,3.3,1.3,5c0.6,2.7,1,6.8,1.6,9.5c0.2,0.7,0.5-0.1,1,0.5c0.5,0.6,1.3,0.8,1.9,0.4
 	c0.5-0.5,0.7-1.2,0.6-1.9c0-6.8-2.4-13.3-5.7-19.3c-0.2-0.3-0.8-1.6-1.3-1.5s-0.6,1.7-0.6,2.1C11.3,56.9,11.6,58.6,12.3,60.3z"/>
 <path class="st1" d="M23.7,76c0,0-1.5,0-2.2,0s-0.2-0.3-0.3-1c-0.9-5.7-1.5-11.4-2.1-17.2c-0.1-0.7-0.4-3.1,0.7-1.9
 	c0.7,1,1.3,2.2,1.6,3.4c1,2.4,1.6,4.9,1.9,7.5C23.8,69.9,23.9,73,23.7,76z"/>
 <path class="st0" d="M12,50.5c-0.5,1-0.7,2.1-0.5,3.2c0.3,2,0.7,3.9,1.4,5.8c1.7,5.1,3.1,10.2,4.2,15.4c0.1,0.4,0.2,0.8,0.5,1.1
 	c0.3,0.3,0.6,0.4,0.9,0.5c0.6,0.2,1.2,0.3,1.8,0.4c0.1,0,0.2,0,0.3,0c0.2-0.1,1.6-0.7,1.6-0.9c0-3.8-0.1-7,0-10.8
 	c0.2-3.7-0.4-7.5-1.7-11c-0.4-1.2-1.2-2.3-2.2-3.2c-1-0.6-2.1-1.1-3.3-1.4C13.9,49.1,12.7,49.5,12,50.5z"/>
 <path class="st0" d="M15.6,74.5c-0.5,0.3-1,0.7-1.3,1.2c-0.4,0.9-0.1,2,0.8,2.4c0.4,0.2,0.8,0.2,1.2,0.1c0,0.6,0.4,1.2,1,1.3
 	c0.9,0.3,1.8-0.1,2.4-0.8c0.3,0.4,0.9,0.5,1.4,0.3c0.5-0.2,0.9-0.7,1-1.2c0.1-0.5,0.2-1,0.2-1.6c0.1-0.9-0.2-1.8-0.8-2.4
 	c-0.4-0.2-0.8-0.4-1.2-0.4C18.6,73.3,17,73.7,15.6,74.5z"/>
 <path class="st1" d="M16.3,78.3c0-0.3,0-0.5,0.1-0.8c0.2-0.5,0.5-0.9,0.9-1.3c-0.5,0.1-0.9,0.4-1.2,0.8c-0.2,0.4-0.4,0.8-0.5,1.3
 	c0.1,0.1,0.2,0.1,0.3,0.1C16.1,78.4,16.2,78.4,16.3,78.3z"/>
 <path class="st1" d="M19.7,78.8c-0.1-0.3-0.1-0.5,0-0.8c0.1-0.5,0.3-1,0.6-1.5c-0.4,0.3-0.7,0.6-0.9,1.1c-0.2,0.6-0.3,1.1-0.3,1.7
 	c0.1-0.1,0.2-0.1,0.3-0.2C19.5,79,19.6,78.9,19.7,78.8z"/>
 <path class="st1" d="M37.2,59.7c-0.4,1.7-0.7,3.4-1,5.1c-0.7,3.2-1,6.5-0.9,9.7c0,0.7-0.8-0.2-1.3,0.3c-0.4,0.6-1.2,0.8-1.9,0.5
 	c-0.5-0.5-0.8-1.1-0.7-1.8C31.1,66.7,33.2,60,36.1,54c0.2-0.3,0.7-1.6,1.2-1.6S38,54,38,54.5C38,56.2,37.7,58,37.2,59.7z"/>
 <path class="st1" d="M26.6,76c0,0,1.6-0.1,2.2-0.1s0.2-0.4,0.2-1c0.6-5.7,1-11.5,1.2-17.3c0-0.7,0.3-3.1-0.8-1.9
 	c-0.7,1.1-1.2,2.2-1.5,3.5c-0.8,2.4-1.4,4.9-1.6,7.5C26.2,69.8,26.2,72.9,26.6,76z"/>
 <path class="st0" d="M36.9,49.9c0.6,1,0.8,2.1,0.7,3.2c-0.2,2-0.6,3.9-1.2,5.8C35.1,64.1,34,69.3,33,74.5c0,0.4-0.2,0.8-0.4,1.1
 	c-0.2,0.3-0.6,0.5-0.9,0.6c-0.6,0.2-1.2,0.4-1.8,0.4c-0.1,0-0.2,0-0.3,0C29.5,76.5,28,76,28,75.8c-0.2-3.8-0.2-7-0.5-10.8
 	c-0.4-3.7,0-7.5,1.2-11.1c0.3-1.3,1-2.4,2-3.3c1-0.7,2.1-1.2,3.2-1.6C35,48.5,36.3,48.9,36.9,49.9z"/>
 <path class="st0" d="M34.6,74c0.5,0.3,1,0.7,1.3,1.2c0.5,0.9,0.2,2-0.7,2.4c-0.4,0.2-0.8,0.3-1.2,0.2c0.1,0.6-0.3,1.2-0.9,1.4
 	c-0.9,0.3-1.8,0-2.4-0.7c-0.3,0.4-0.9,0.6-1.4,0.4c-0.5-0.2-0.8-0.6-1-1.2c-0.2-0.5-0.2-1-0.2-1.6c-0.1-0.9,0.1-1.8,0.7-2.4
 	c0.3-0.3,0.8-0.4,1.2-0.5C31.5,73,33.2,73.3,34.6,74z"/>
 <path class="st1" d="M30.7,78.6c0.1-0.3,0.1-0.5,0-0.8c-0.1-0.5-0.4-1-0.7-1.4c0.4,0.2,0.7,0.6,0.9,1c0.2,0.6,0.4,1.2,0.4,1.8
 	c-0.1-0.1-0.2-0.1-0.3-0.2C30.9,78.8,30.8,78.7,30.7,78.6z"/>
 <path class="st1" d="M34.1,77.9c0-0.3,0-0.7-0.2-1c-0.2-0.4-0.5-0.8-0.8-1.1c0.4,0.2,0.9,0.4,1.2,0.8c0.3,0.4,0.4,0.8,0.5,1.2
 	c0,0,0,0-0.3,0.1C34.3,77.9,34.2,77.9,34.1,77.9z"/>
 <path class="st3" d="M8.3,60.8c-1.1-0.7-2.8-0.3-3.6-1.3c-1-1.3-0.1-2.9-1.3-4.2l-0.1-0.1c-0.2,0.1-0.4,0.2-0.6,0.3
 	c-1.1,0.8-1.1,2.4-0.8,3.7c0.7,2.5,1.9,4.8,3.5,6.8c0.5,0.7,1,1.4,1.5,2.1c0.3-0.4,0.6-0.8,1-1.2c0.7-0.9,1.2-1.9,1.5-3
 	C9.7,62.7,9.3,61.5,8.3,60.8z"/>
 <path class="st0" d="M44.1,74.5c0.9,0.5,1.5,1.4,1.8,2.3c0.2,0.7-0.2,1.5-0.8,1.8c-0.1,0.5-0.4,1-0.9,1.1c-1.2,0.4-2.4-0.3-3.4-1.1
 	l-4.1-3c-0.7-0.5-1.4-1.1-1.3-1.9c0-0.4,0.2-0.8,0.5-1.1c0.9-1,2.7-1.8,3.9-1.2C41.3,72.3,42.8,73.3,44.1,74.5z"/>
 <path class="st1" d="M45.1,78.6c0.1-0.4,0-0.7-0.2-1c-0.3-0.4-0.6-0.7-1-1c0.4,0.1,0.8,0.3,1.2,0.5c0.3,0.3,0.5,0.7,0.6,1.1
 	c0,0.1-0.1,0.2-0.2,0.3C45.3,78.6,45.2,78.6,45.1,78.6z"/>
 <path class="st7" d="M26.8,48.2c-0.1,0-0.2,0.1-0.2,0.2c0,0,0,0,0,0c0,0.3,0.1,3.4,0.2,3.6c0,0.4,0.3,0.4,0.3,0.4l0.5-0.2l0.3-1.5
 	l-0.2-2.3l-0.5-0.2L26.8,48.2z"/>
 <path class="st8" d="M11.4,38.5c0,0,1.2,9.8,13.2,10C35.5,48.7,36.9,41,36.9,41v3.9c0,0-1.3,7.1-11.4,7.5
 	c-11.9,0.5-14.3-9.7-14.3-9.7L11.4,38.5z"/>
 <path class="st9" d="M32.1,55.7c0.4-0.2,0.6-0.5,0.8-0.9c0.1-0.4,0-0.8-0.3-1c-0.3-0.2-0.6-0.2-0.9-0.1c-0.4,0.1-0.7,0.3-1,0.5h-5.8
 	c-0.4-0.3-0.8-0.5-1.2-0.7c-0.3-0.1-0.6-0.1-0.9,0.1c-0.3,0.2-0.4,0.6-0.3,1c0.1,0.4,0.4,0.7,0.8,0.9c-0.6,0.2-0.9,0.8-0.9,1.4
 	c0,0.5,0.2,0.9,0.6,1.2c0.6,0.2,1.2,0,1.6-0.5l0.2-0.2h5.8c0.1,0.1,0.3,0.2,0.4,0.4c0.4,0.4,1,0.6,1.5,0.4c0.4-0.2,0.7-0.7,0.6-1.2
 	C33,56.5,32.7,55.9,32.1,55.7z"/>
 <path class="st7" d="M23.1,55.5c0.1,0,0.1-0.1,0-0.2c-0.4-0.2-0.6-0.5-0.8-0.9c0,0,0-0.1,0-0.2c0,0.1,0,0.3,0,0.4
 	C22.5,55,22.7,55.4,23.1,55.5z"/>
 <path class="st7" d="M32.1,55.4c-0.2,0.1-0.1,0.2,0,0.2c0.4-0.2,0.6-0.5,0.8-0.9c0-0.1,0-0.3,0-0.4c0,0,0,0.1,0,0.2
 	C32.7,55,32.5,55.3,32.1,55.4z"/>
 <path class="st7" d="M32.4,58c-0.6,0.1-1.1,0-1.5-0.5c-0.1-0.1-0.3-0.2-0.4-0.4h-5.8l-0.2,0.2c-0.4,0.4-1,0.6-1.5,0.4
 	c-0.4-0.2-0.6-0.6-0.6-1.1v0.1c0,0.5,0.2,0.9,0.6,1.2c0.6,0.2,1.2,0,1.6-0.4l0.2-0.2h5.8c0.1,0.1,0.3,0.2,0.4,0.4
 	c0.4,0.4,1,0.6,1.5,0.4c0.4-0.2,0.7-0.7,0.6-1.2V57C33,57.4,32.7,57.8,32.4,58z"/>
 <path class="st10" d="M22.5,56.6c-0.1,0.3,0,0.7,0.3,0.9c0.1,0,0.1,0.1,0.2,0.1c0.1,0,0.1-0.1,0.2-0.2c0-0.1,0-0.2,0-0.2
 	c0-0.1,0-0.3,0-0.4c0-0.1,0.1-0.3,0.2-0.4c0.1-0.1,0.3-0.1,0.4-0.3s-0.1-0.2-0.2-0.3C23,55.7,22.6,56.2,22.5,56.6z"/>
 <path class="st10" d="M22.7,54.1c0.1,0,0.1,0,0.2,0L23,54c0.2-0.1,0.5-0.1,0.7,0c0.1,0,0.1,0,0.2,0c0,0,0-0.1,0-0.1
 	c0,0-0.1-0.1-0.1-0.1c-0.2-0.1-0.4-0.2-0.6-0.1C23.1,53.7,22.3,53.9,22.7,54.1z"/>
 <path class="st10" d="M31.3,54c-0.1,0-0.1,0.1-0.2,0.2c0,0.1,0,0.1,0,0.2c0.1,0.1,0.2,0.1,0.3,0c0.1,0,0.2-0.1,0.2-0.2
 	c0.1-0.1,0.3-0.1,0.4-0.1c0.1,0,0.1,0,0.2,0c0.1,0,0.1,0,0.2-0.1c0.1-0.1,0.1-0.2,0-0.3c-0.1-0.1-0.2-0.1-0.3-0.1
 	C31.8,53.7,31.5,53.8,31.3,54z"/>
 <path class="st9" d="M26.8,48.2c0,0,0.6-0.1,0.6,1c0.1,0.9,0.1,1.9,0,2.8c-0.2,0.4-0.4,0.5-0.4,0.5l1.2-0.1c0.2-0.2,0.2-0.4,0.2-0.7
 	c0-0.6-0.1-2.8-0.1-3c-0.1-0.5-0.4-0.6-0.4-0.6L26.8,48.2z"/>
 <path class="st10" d="M27.4,48.3c0,0.1,0,0.1,0,0.2c0,0.1,0.1,0.1,0.1,0.2c0.1,0.1,0.1,0.3,0.1,0.4c0,0.2,0,0.3,0.1,0.4
 	s0,0.1,0.1,0.1c0-0.1,0-0.3,0-0.5l-0.1-0.5c0-0.1,0-0.1,0-0.2C27.6,48.3,27.4,48.2,27.4,48.3z"/>
 <path class="st9" d="M26.7,52.8c-0.1,0.2,0,0.4,0.1,0.6c0.4,0.3,0.8,0.3,1.3,0.2c0.3-0.1,0.4-0.4,0.4-0.7c0-0.2-0.1-0.3-0.2-0.5
 	c-0.1-0.1-0.3-0.2-0.5-0.2c-0.1,0-0.2,0-0.2,0.1s0.1,0.2,0.2,0.2c0.1,0,0.2,0.1,0.3,0.2c0.1,0.2,0.1,0.4-0.1,0.5
 	c-0.2,0.1-0.3,0.1-0.5,0.1c-0.2,0-0.4-0.2-0.4-0.4c0,0,0-0.1,0-0.1c0.1-0.1,0.2-0.2,0.3-0.3c0,0,0-0.1,0-0.1c0-0.1-0.1,0-0.2,0
 	S26.7,52.5,26.7,52.8z"/>
 <path class="st9" d="M27.4,53c0,0.1,0,0.2,0,0.3c0,0.3,0,0.5,0.1,0.8c0,0.2,0.1,0.3,0.2,0.4c0.1,0.1,0.3,0,0.4-0.1
 	c0.1-0.1,0.1-0.2,0.1-0.3v-0.7c0-0.1,0-0.2,0-0.3C27.9,52.9,27.5,52.8,27.4,53z"/>
 <path class="st7" d="M28.1,53.6c0.1,0,0.2-0.1,0.3-0.2c0,0-0.1,0-0.1,0c-0.1-0.1-0.2-0.1-0.2-0.2l0,0c0,0,0,0,0,0.1s0,0.1,0,0.1
 	S28.1,53.5,28.1,53.6z"/>
 <path class="st10" d="M27.4,53.1c0,0.1,0,0.1,0,0.2l0.1,0.5c0,0.1,0,0.1,0.1,0.2c0,0,0.1,0.1,0.1,0l0,0c0-0.1,0-0.2,0-0.3
 	c0-0.1,0-0.2,0-0.3c0-0.1,0-0.2,0.1-0.2c0,0,0.1,0,0.1-0.1s0,0,0,0S27.5,52.9,27.4,53.1z"/>
 <path class="st11" d="M48.4,10.4l-1.8-1.2l-1.7,0.5c-0.2,0.1-0.5-0.1-0.5-0.3c0,0,0-0.1,0-0.1l-0.1-1.7l-1.8-1.2
 	c-0.8-0.6-1-1.7-0.5-2.5l2-3.1c0.5-0.8,1.7-1.1,2.5-0.5c0,0,0,0,0,0l6,4C53.3,4.9,53.5,6,53,6.8c0,0,0,0,0,0l-2.1,3.1
 	C50.3,10.7,49.3,11,48.4,10.4z"/>
 <path class="st12" d="M48.8,7l-2.3,0.3c-0.2,0-0.4-0.1-0.4-0.3l-0.6-2.3c-0.3-0.7,0-1.6,0.7-1.9c0.7-0.3,1.6,0,1.9,0.7
 	c0.1,0.2,0.1,0.4,0.1,0.6C50.4,3.5,50.9,6.7,48.8,7z"/>
 <path class="st12" d="M18.2,20.6c0.7,1.8-0.2,4-1.5,4.5c-0.6,0.2-1.1,0-2.2-0.4c-1.9-0.6-3.2-1.1-3.5-2.1c-0.5-1.5,1.2-4.1,3.5-4.2
 	C16.1,18.3,17.6,19.2,18.2,20.6z"/>
 <path class="st5" d="M16.2,18.8c1.2,0.2,2.1,1.3,1.9,2.6c-0.2,1.2-1.3,2.1-2.6,1.9c-1.2-0.2-2.1-1.3-1.9-2.6
 	C13.8,19.4,14.9,18.6,16.2,18.8z"/>
 <path class="st5" d="M13.9,17.5c0-0.1-1.9-0.6-2.9,0.4c-0.5,0.6-0.5,1.5-0.4,1.8c0.3-0.6,0.7-1.3,1.5-1.7
 	C13.1,17.5,14,17.6,13.9,17.5z"/>
 <path class="st5" d="M14.7,15.7"/>
 <path class="st12" d="M17,19.1c0.5,0.1,0.9,0.6,0.8,1.1c-0.1,0.5-0.6,0.9-1.1,0.8c-0.5-0.1-0.9-0.6-0.8-1.1
 	C15.9,19.4,16.4,19.1,17,19.1z"/>
 <path class="st5" d="M29.5,13c0-0.1-1.5-1.4-2.8-0.9c-0.8,0.3-1.1,1.1-1.2,1.4c0.5-0.4,1.2-0.8,2.1-0.8C28.8,12.6,29.5,13.1,29.5,13
 	z"/>
 <path class="st12" d="M30.8,17.7c0.5,1.8-0.6,4-1.9,4.3c-0.6,0.1-1.1-0.1-2.1-0.6c-1.8-0.8-3-1.4-3.2-2.5c-0.3-1.6,1.6-3.9,4-3.8
 	C29,15.1,30.4,16.2,30.8,17.7z"/>
 <path class="st5" d="M28.5,15.3c1.2,0.2,2.1,1.3,1.9,2.6c-0.2,1.2-1.3,2.1-2.6,1.9c-1.2-0.2-2.1-1.3-1.9-2.6
 	C26.1,16,27.2,15.2,28.5,15.3z"/>
 <path class="st12" d="M29.3,15.6c0.5,0.1,0.9,0.6,0.8,1.1c-0.1,0.5-0.6,0.9-1.1,0.8c-0.5-0.1-0.9-0.6-0.8-1.1
 	C28.2,15.9,28.8,15.5,29.3,15.6z"/>
 <path class="st12" d="M10.5,22.8"/>
 <path class="st12" d="M-2,11.4"/>
 </svg>
