<svg class="svg-image-dog-2" viewBox="0 0 76.63 50.58" xmlns="http://www.w3.org/2000/svg"><ellipse cx="39.77" cy="46.84" fill="#fff" rx="36.86" ry="3.74"/><g transform="translate(-11.75 -20.42)"><path d="m81.71 55.91a16.31 16.31 0 0 1 4.52 10.58c0 .41-.07.93-.46 1.07a.73.73 0 0 1 -.81-.41 2.38 2.38 0 0 1 -.18-1c-.17-3.28-1.63-6.67-4.47-8.32-2.18-1.27-4.83-1.35-7.28-2a6.76 6.76 0 0 1 -2.64-1.24 3 3 0 0 1 -.72-4c.79-1 2.07-.83 3.17-.51a20.84 20.84 0 0 1 8.87 5.83z" fill="#fff9e9"/><path d="m74.46 51.46a15.83 15.83 0 0 0 0 3.83 1.51 1.51 0 0 0 .21.69 1.6 1.6 0 0 0 1.15.46 15.4 15.4 0 0 1 2.84.66 27.27 27.27 0 0 1 -.89-3 5.5 5.5 0 0 0 -.65-1.82 3.36 3.36 0 0 0 -1.18-1c-.57-.28-1.37-.8-1.48.18z" fill="#f2ecdf"/><path d="m27.32 67.33a1.38 1.38 0 0 0 -.09 1.56 1 1 0 0 0 1 .3 2 2 0 0 0 1-.55.66.66 0 0 0 .07 1 1 1 0 0 0 1 .09 3.22 3.22 0 0 0 .9-.62c-.24.29.13.75.51.75a1.53 1.53 0 0 0 1-.55 7 7 0 0 0 1.41-1.7 1.76 1.76 0 0 0 .22-1.24 1.93 1.93 0 0 0 -1.62-1.17 5.31 5.31 0 0 0 -5.4 2.13z" fill="#f2ecdf"/><path d="m35.05 40.3a21.69 21.69 0 0 0 13.73-1c7.27-2.7 17.74-.42 21.11 2.27s7 8.8 5.21 19.82c-.32 2-5.62.75-7.54 2.19-2.26 1.68-4.81 3.63-7.63 3.51-7.6-.32-14 .84-20.59-1.32a24.62 24.62 0 0 1 -7.68-3.8 11.74 11.74 0 0 1 -4.5-7.11 11.55 11.55 0 0 1 1.65-7.56 22.63 22.63 0 0 1 5.28-5.81z" fill="#fff9e9"/><path d="m68.12 57.17a23.57 23.57 0 0 1 -7.63 3.51c-12.22 3.52-15.25 2.81-21.13-.38a51.41 51.41 0 0 1 -7.14-4.74 12 12 0 0 1 -4.34-6.36 10.85 10.85 0 0 0 -.72 5.65 11.77 11.77 0 0 0 4.5 7.15 24.71 24.71 0 0 0 7.68 3.79c6.63 2.17 13 1 20.59 1.33 2.82.12 5.37-1.83 7.63-3.52 1.92-1.43 7.22-.24 7.54-2.19.38-2.28-5.1-5.61-6.98-4.24z" fill="#f2ecdf"/><path d="m43.64 61.3a15.1 15.1 0 0 0 3.54-3.68 13.59 13.59 0 0 0 2.06-3.89 9.46 9.46 0 0 0 -.61-6.73 11.09 11.09 0 0 0 -4.78-4.85c-.91-.49-2.19-.79-2.86 0a2.68 2.68 0 0 0 -.47 1.24 30.51 30.51 0 0 1 -2.67 7.69 35 35 0 0 0 -1.69 3.49 6.48 6.48 0 0 0 -.35 3.81 8 8 0 0 0 3 4.19c1.36.79 3.69-.48 4.83-1.27z" fill="#f2ecdf"/><path d="m22.38 58.47a11.53 11.53 0 0 1 4.55-4.4 6 6 0 0 1 3.92-.79 4.82 4.82 0 0 1 3.5 3.94 4.31 4.31 0 0 1 -.12 2.11 5.78 5.78 0 0 1 -2.78 2.89c-2.12 1.22-5.38 2.55-7.91 2.13-2.83-.47-2.2-4.06-1.16-5.88z" fill="#ddd8ce"/><path d="m13.05 50.36a1.13 1.13 0 0 0 -.37 1.46 17.23 17.23 0 0 0 1.46 3.18.71.71 0 0 0 .19.23.69.69 0 0 0 .56 0 12.28 12.28 0 0 1 6.85-.2c.56.14 1.23.3 1.66-.08a1.72 1.72 0 0 0 .42-.84 12.6 12.6 0 0 0 .53-3.54 5.11 5.11 0 0 0 -1.22-3.3 3.48 3.48 0 0 0 -2.24-1.1 6.43 6.43 0 0 0 -2.48.79 16.2 16.2 0 0 0 -5.36 3.4z" fill="#bf946d"/><path d="m26.5 31.2a3.83 3.83 0 0 1 2.8-1.09c1.24.14 2.19 1.21 3.41 1.52a25.51 25.51 0 0 0 -1 8.89 4.4 4.4 0 0 1 -.45 2.48 2.84 2.84 0 0 1 -2.92 1.05 6.23 6.23 0 0 1 -2.83-1.6 7.58 7.58 0 0 1 -2-2.58c-.67-1.51-.22-3.13.28-4.62a9.12 9.12 0 0 1 2.71-4.05z" fill="#bf946d"/><path d="m39.49 40a28.92 28.92 0 0 0 -6.12-1.68q-3.06-.57-6.15-.89a12.33 12.33 0 0 0 -3.15 0 6.65 6.65 0 0 0 -4.94 3.52c-1.2 2.4-4.48 7.05 2.87 14.05 3.55 3.38 7.82 6.62 12.66 6.62a12.35 12.35 0 0 0 10.17-5.62 11.4 11.4 0 0 0 1.89-6.11 10.06 10.06 0 0 0 -2.12-6.24 13 13 0 0 0 -5.11-3.65z" fill="#fff9e9"/><path d="m22.11 43.9a4.33 4.33 0 0 0 -1.71.93 7.48 7.48 0 0 0 -2.18 3.39c-.11.34-.26.85-.38 1.18a15.32 15.32 0 0 0 4.1 5.7 27.56 27.56 0 0 0 7.78 5.45 9 9 0 0 0 .28-1.86c.2-2.47.16-5.1-1.13-7.22-.32-.51-.7-1-1-1.51-.62-1.15-.75-2.51-1.32-3.68a4.17 4.17 0 0 0 -4.44-2.38z" fill="#bf946d"/><path d="m31.81 35.82a5.18 5.18 0 0 0 1.55.87 1.25 1.25 0 0 0 1.31-.57 4.31 4.31 0 0 0 .06-4 4 4 0 0 0 -1.53-1.53 7.2 7.2 0 0 0 -2.85-1 4.51 4.51 0 0 0 -2.71.4c-.53.28-1.75 1.3-1.87 1.92a2.3 2.3 0 0 1 2.64.23c1.82 1.26 1.96 2.69 3.4 3.68z" fill="#edb68a"/><path d="m13.38 49.59a4.7 4.7 0 0 0 -.64 6.41 9.23 9.23 0 0 0 2.26 2.4 5.07 5.07 0 0 0 2.28 1.05 2.36 2.36 0 0 0 2.23-.89c.58-1.54-3.14-2.08-3.84-5.27a9.6 9.6 0 0 1 .24-5.13 4.32 4.32 0 0 0 -2.53 1.43z" fill="#edb68a"/><path d="m41.65 51.28a1.47 1.47 0 0 1 .78 0 2.12 2.12 0 0 1 .88.66 2.57 2.57 0 0 0 -.86-.93 1.62 1.62 0 0 0 -1.26-.15 3.75 3.75 0 0 0 -1.56 1c-.13.14-.13.35-.2.53a.34.34 0 0 0 0 .28c.15.29.34-.13.42-.25a3.07 3.07 0 0 1 .5-.58 2.66 2.66 0 0 1 1.3-.56z" fill="#ddd8ce"/><path d="m39.55 55.36a1.7 1.7 0 0 0 .54.62 2.73 2.73 0 0 0 1.13.32 3 3 0 0 1 -1.35-.16 1.77 1.77 0 0 1 -.95-.93 3.51 3.51 0 0 1 -.16-1.87c0-.19.21-.3.31-.47a.36.36 0 0 1 .23-.17c.34 0 .12.36.07.5a3 3 0 0 0 -.15.74 2.61 2.61 0 0 0 .33 1.42z" fill="#ddd8ce"/><path d="m33.19 54.67c-.09 1.22.35 2 1.34 2 .78 0 1.72-1.34 2.35-1.79a20.93 20.93 0 0 1 2.46-1.1 2 2 0 0 0 1.21-2.16c-.09-.24-.25-.45-.36-.69a5 5 0 0 1 0-2.64c.09-.89-.09-2-.91-2.33s-1.81.28-2.42 1a22.56 22.56 0 0 0 -3.67 7.71z" fill="#231f20"/><path d="m34.75 55.61a.74.74 0 0 0 .29-.56 3.44 3.44 0 0 0 0-.64 5.77 5.77 0 0 1 .36-2.82 1.57 1.57 0 0 0 .13-.47.43.43 0 0 0 -.22-.42c-.29-.13-1.19 2.79-1.25 3.08s-.4 2.58.69 1.83z" fill="#fff9e9" opacity=".29"/><path d="m25.94 49.19a2.49 2.49 0 0 1 -.38 2.81 2.2 2.2 0 0 1 -2.54.59s2.28 1.33 3.57.27c1.81-1.52-.65-3.67-.65-3.67z" fill="#231f20"/><path d="m29.35 44.16a2.49 2.49 0 0 0 1.57-2.33 2.21 2.21 0 0 0 -1.49-2.13s2.58.53 2.83 2.18c.36 2.32-2.91 2.28-2.91 2.28z" fill="#231f20"/><path d="m38.62 62.3a10.25 10.25 0 0 1 4 2.86 2.87 2.87 0 0 1 .7 2.4 1.43 1.43 0 0 1 -2 1 1.85 1.85 0 0 1 -1.32 1.25 1.82 1.82 0 0 1 -1.76-.63c.14.47-.43.89-.92.82a2.51 2.51 0 0 1 -1.23-.74c-3.09-2.63-7.41-3-11.36-3.94a6.08 6.08 0 0 1 -2.23-.87 2.11 2.11 0 0 1 -.41-3.26 3.29 3.29 0 0 1 2.41-1 26 26 0 0 1 9.13.39 26.93 26.93 0 0 1 4.99 1.72z" fill="#fff9e9"/><path d="m54.94 51.24a8.39 8.39 0 0 0 .46 5.51 13.85 13.85 0 0 0 5 6.25 23.74 23.74 0 0 0 -4.13.72c-.33.08-2.15.77-2.57 1.61-.72 1.42 0 1.4.47 1.7s2.74-.58 3.27-.54c.92.06 1.85.07 2.77 0a9.13 9.13 0 0 0 4.66-1.18 8.76 8.76 0 0 0 2.06-2.06 6.66 6.66 0 0 0 1.33-2.69 5.66 5.66 0 0 0 -1.86-4.82 24.27 24.27 0 0 0 -4.4-3.04c-1-.62-2-1.45-2.09-2.62a13.24 13.24 0 0 0 .09-1.54c-.22-1.36-2.08-.62-2.81-.19a5.11 5.11 0 0 0 -2.25 2.89z" fill="#f2ecdf"/><path d="m61.35 46.8a7 7 0 0 0 -4.35 2.38 6.73 6.73 0 0 0 -1 5.94 11.67 11.67 0 0 0 3.38 5.18 32.66 32.66 0 0 0 4.84 3.57 20 20 0 0 0 -8.43 1.49 3.42 3.42 0 0 0 -1.3.8 1.32 1.32 0 0 0 -.27 1.43 2 2 0 0 0 1.56.79c-.71.38 0 1.2.45 1.29 1.53.29 3-.33 4.56-.7 2.21-.55 4.44-1 6.69-1.34a13.13 13.13 0 0 0 4.84-1.35 7.32 7.32 0 0 0 3.31-6.1 11.48 11.48 0 0 0 -2.28-6.75 38.48 38.48 0 0 0 -5-5.48c-1.66-1.6-4.88-1.53-7-1.15z" fill="#fff9e9"/><path d="m70.39 42c-.16-.14-.32-.28-.49-.41-2.63-2.11-9.62-4-16-3.37-1.16 1.42-2.31 2.54-1.93 4.75a1.79 1.79 0 0 0 .64 1.22 1.63 1.63 0 0 0 1 .23 13.9 13.9 0 0 0 3.32-.82 3.24 3.24 0 0 1 3.22.54c.77.82.73 2.12 1.32 3.08a3.15 3.15 0 0 0 2.4 1.37 5 5 0 0 0 2.75-.65 7.42 7.42 0 0 0 3.77-5.94z" fill="#bf946d"/><path d="m55.84 68.38a1.49 1.49 0 0 1 .61-.93 10 10 0 0 1 1.15-.67 3.83 3.83 0 0 0 -1.51.27 1.86 1.86 0 0 0 -1 1.16z" fill="#f2ecdf"/><path d="m38.2 69.18a3.73 3.73 0 0 0 -.12-1.09 10.79 10.79 0 0 0 -.41-1.34 4.84 4.84 0 0 1 .83 1.43 13.32 13.32 0 0 1 .31 1.48 2 2 0 0 1 -.33-.18 3.76 3.76 0 0 1 -.31-.23z" fill="#f2ecdf"/><path d="m41.67 67.38a6.17 6.17 0 0 0 -1.29-1.53 4.5 4.5 0 0 1 .62 1.15 12.2 12.2 0 0 1 .34 1.56 1.12 1.12 0 0 0 .34.15 2.76 2.76 0 0 0 .42 0 2.81 2.81 0 0 0 -.43-1.33z" fill="#f2ecdf"/><path d="m45.59 30.11-2.07-.84-1.52.83a.41.41 0 0 1 -.59-.26l-.45-1.63-2-.83a1.79 1.79 0 0 1 -1-2.34l1.42-3.5a1.8 1.8 0 0 1 2.35-1l6.69 2.73a1.8 1.8 0 0 1 1 2.34l-1.43 3.5a1.79 1.79 0 0 1 -2.4 1z" fill="#fc636b"/><path d="m42.85 26.93.81-.69-.42-1.11.76-1.13a1.66 1.66 0 0 0 -1.09-1.26 1.64 1.64 0 0 0 -2.07 1 2.37 2.37 0 0 0 .32 1.59c.35.72.9 1.87 1.37 3z" fill="#fff"/><path d="m45.89 23.73a1.63 1.63 0 0 0 -1.5.24l-.81 1.2.42 1.17-.9.76-.3 1.4a22.57 22.57 0 0 1 2.93-1.64 2.18 2.18 0 0 0 1.17-1.07 1.63 1.63 0 0 0 -1.01-2.06z" fill="#fff"/></g></svg>
